<?xml version="1.0" encoding="utf-8"?>
<!-- Generator: Adobe Illustrator 18.1.1, SVG Export Plug-In . SVG Version: 6.00 Build 0)  -->
<!DOCTYPE svg PUBLIC "-//W3C//DTD SVG 1.1//EN" "http://www.w3.org/Graphics/SVG/1.1/DTD/svg11.dtd">
<svg version="1.1" id="Layer_1" xmlns="http://www.w3.org/2000/svg" xmlns:xlink="http://www.w3.org/1999/xlink" x="0px" y="0px"
	 viewBox="0 0 598.5 1200" enable-background="new 0 0 598.5 1200" xml:space="preserve">
<pattern  width="100" height="100" patternUnits="userSpaceOnUse" id="Pattern_8" viewBox="0 -100 100 100" overflow="visible">
	<g>
		<polygon fill="none" points="0,-100 100,-100 100,0 0,0 		"/>
		<path fill="#EDEDED" d="M100-100v31.7l-1.5-1.5l-0.7,0.7l2.2,2.2v45.4L99.5-22l-0.7,0.7l1.2,1.2V0H0v-20.1l1.8,1.8L2.5-19L0-21.5
			v-45.4l0.7,0.7l0.7-0.7L0-68.3V-100H100z M27.2-39.7l1.4,1.4l0.7-0.7L28-40.4L27.2-39.7z M3.7-63.3l2.9,2.9L7.3-61L4.4-64
			L3.7-63.3z M8.4-13.1l-2.9-2.9l-0.7,0.7l2.9,2.9L8.4-13.1z M9.6-57.4l2.9,2.9l0.7-0.7l-2.9-2.9L9.6-57.4z M14.3-7.2l-2.9-2.9
			l-0.7,0.7l2.9,2.9L14.3-7.2z M15.5-51.5l2.9,2.9l0.7-0.7l-2.9-2.9L15.5-51.5z M20.2-1.3l-2.9-2.9l-0.7,0.7l2.9,2.9L20.2-1.3z
			 M24-19.5l-1.4-1.4l-0.7,0.7l1.4,1.4L24-19.5z M25-43.3l-2.9-2.9l-0.7,0.7l2.9,2.9L25-43.3z M26.1-95.4l-2.9-2.9l-0.7,0.7l2.9,2.9
			L26.1-95.4z M29.9-13.6L27-16.6l-0.7,0.7l2.9,2.9L29.9-13.6z M30.4-91.1L29-92.5l-0.7,0.7l1.4,1.4L30.4-91.1z M35.8-7.7l-2.9-2.9
			L32.2-10L35.1-7L35.8-7.7z M36.3-59.9l-1.4-1.4l-0.7,0.7l1.4,1.4L36.3-59.9z M41.7-1.8l-2.9-2.9L38-4.1L41-1.1L41.7-1.8z M42.2-54
			l-2.9-2.9l-0.7,0.7l2.9,2.9L42.2-54z M43.9-98.2l2.9,2.9l0.7-0.7l-2.9-2.9L43.9-98.2z M48.1-48.1L45.2-51l-0.7,0.7l2.9,2.9
			L48.1-48.1z M49.8-92.3l2.9,2.9l0.7-0.7L50.6-93L49.8-92.3z M54-42.2l-2.9-2.9l-0.7,0.7l2.9,2.9L54-42.2z M55.7-86.4l2.9,2.9
			l0.7-0.7l-2.9-2.9L55.7-86.4z M59.9-36.3L57-39.3l-0.7,0.7l2.9,2.9L59.9-36.3z M61.6-80.5l1.4,1.4l0.7-0.7l-1.4-1.4L61.6-80.5z
			 M65.8-30.4l-2.9-2.9l-0.7,0.7l2.9,2.9L65.8-30.4z M71.7-24.5l-2.9-2.9l-0.7,0.7l2.9,2.9L71.7-24.5z M76.1-20.1l-1.4-1.4L74-20.8
			l1.4,1.4L76.1-20.1z M87.5-79.4l1.4,1.4l0.7-0.7l-1.4-1.4L87.5-79.4z M90.7-30.8l-1.4-1.4l-0.7,0.7l1.4,1.4L90.7-30.8z M91.9-75.1
			l2.9,2.9l0.7-0.7l-2.9-2.9L91.9-75.1z M96.6-24.9l-2.9-2.9l-0.7,0.7l2.9,2.9L96.6-24.9z"/>
		<polygon fill="#245F80" points="2.5,-19 0,-21.5 0,-20.1 1.8,-18.3 		"/>
		<polygon fill="#245F80" points="16.5,-3.6 19.5,-0.6 20.2,-1.3 17.2,-4.3 		"/>
		<polygon fill="#245F80" points="10.6,-9.5 13.6,-6.5 14.3,-7.2 11.3,-10.2 		"/>
		<polygon fill="#245F80" points="4.7,-15.4 7.7,-12.4 8.4,-13.1 5.4,-16.1 		"/>
		<polygon fill="#245F80" points="1.4,-66.9 0,-68.3 0,-66.9 0.7,-66.2 		"/>
		<polygon fill="#245F80" points="13.2,-55.1 10.3,-58.1 9.6,-57.4 12.5,-54.4 		"/>
		<polygon fill="#245F80" points="21.4,-45.6 24.3,-42.6 25,-43.3 22.1,-46.3 		"/>
		<polygon fill="#245F80" points="7.3,-61 4.4,-64 3.7,-63.3 6.6,-60.3 		"/>
		<polygon fill="#245F80" points="19.1,-49.2 16.2,-52.2 15.5,-51.5 18.4,-48.5 		"/>
		<polygon fill="#245F80" points="29.4,-39 28,-40.4 27.2,-39.7 28.7,-38.3 		"/>
		<polygon fill="#245F80" points="34.2,-60.6 35.6,-59.2 36.3,-59.9 34.9,-61.3 		"/>
		<polygon fill="#245F80" points="44.5,-50.3 47.4,-47.4 48.1,-48.1 45.2,-51 		"/>
		<polygon fill="#245F80" points="38.6,-56.2 41.5,-53.3 42.2,-54 39.3,-56.9 		"/>
		<polygon fill="#245F80" points="50.4,-44.4 53.3,-41.5 54,-42.2 51.1,-45.1 		"/>
		<polygon fill="#245F80" points="56.3,-38.5 59.2,-35.6 59.9,-36.3 57,-39.3 		"/>
		<polygon fill="#245F80" points="62.2,-32.6 65.1,-29.7 65.8,-30.4 62.9,-33.4 		"/>
		<polygon fill="#245F80" points="68.1,-26.7 71,-23.8 71.7,-24.5 68.8,-27.5 		"/>
		<polygon fill="#245F80" points="74,-20.8 75.4,-19.4 76.1,-20.1 74.7,-21.6 		"/>
		<polygon fill="#245F80" points="89.6,-78.7 88.2,-80.1 87.5,-79.4 88.9,-78 		"/>
		<polygon fill="#245F80" points="97.8,-69.2 100,-66.9 100,-68.3 98.5,-69.9 		"/>
		<polygon fill="#245F80" points="95.5,-72.8 92.6,-75.8 91.9,-75.1 94.8,-72.1 		"/>
		<polygon fill="#245F80" points="88.6,-31.5 90,-30.1 90.7,-30.8 89.3,-32.2 		"/>
		<polygon fill="#245F80" points="92.9,-27.2 95.9,-24.2 96.6,-24.9 93.6,-27.9 		"/>
		<polygon fill="#245F80" points="98.8,-21.3 100,-20.1 100,-21.5 99.5,-22 		"/>
		<polygon fill="#245F80" points="22.4,-97.7 25.4,-94.7 26.1,-95.4 23.1,-98.4 		"/>
		<polygon fill="#245F80" points="28.3,-91.8 29.7,-90.4 30.4,-91.1 29,-92.5 		"/>
		<polygon fill="#245F80" points="21.9,-20.2 23.3,-18.8 24,-19.5 22.6,-20.9 		"/>
		<polygon fill="#245F80" points="38,-4.1 41,-1.1 41.7,-1.8 38.8,-4.8 		"/>
		<polygon fill="#245F80" points="32.2,-10 35.1,-7 35.8,-7.7 32.9,-10.7 		"/>
		<polygon fill="#245F80" points="26.3,-15.9 29.2,-12.9 29.9,-13.6 27,-16.6 		"/>
		<polygon fill="#245F80" points="59.4,-84.1 56.5,-87.1 55.7,-86.4 58.7,-83.4 		"/>
		<polygon fill="#245F80" points="53.5,-90 50.6,-93 49.8,-92.3 52.8,-89.3 		"/>
		<polygon fill="#245F80" points="47.6,-95.9 44.7,-98.9 43.9,-98.2 46.9,-95.2 		"/>
		<polygon fill="#245F80" points="63.8,-79.8 62.3,-81.2 61.6,-80.5 63.1,-79.1 		"/>
	</g>
</pattern>
<pattern  id="SVGID_1_" xlink:href="#Pattern_8" patternTransform="matrix(1 0 0 1 -53 -65)">
</pattern>
<rect fill="url(#SVGID_1_)" width="600" height="1200"/>
</svg>
